<svg width="688" height="648" viewBox="0 0 688 648" fill="none" xmlns="http://www.w3.org/2000/svg">
<g opacity="0.05" clip-path="url(#clip0)">
<path d="M344 6C153.94 6 0 157.36 0 344.037C0 493.419 98.556 620.097 235.21 664.76C252.41 667.942 258.717 657.479 258.717 648.506C258.717 640.479 258.43 619.209 258.287 591.029C162.597 611.411 142.416 545.679 142.416 545.679C126.764 506.663 104.146 496.229 104.146 496.229C72.9853 475.273 106.554 475.703 106.554 475.703C141.097 478.054 159.243 510.533 159.243 510.533C189.917 562.219 239.768 547.284 259.433 538.655C262.529 516.783 271.387 501.905 281.22 493.448C204.823 484.991 124.528 455.923 124.528 326.407C124.528 289.513 137.858 259.356 159.931 235.706C156.061 227.163 144.451 192.792 162.941 146.237C162.941 146.237 191.751 137.179 257.541 180.895C285.061 173.385 314.301 169.658 343.541 169.486C372.781 169.658 402.021 173.385 429.541 180.895C494.901 137.179 523.711 146.237 523.711 146.237C542.201 192.792 530.591 227.163 527.151 235.706C549.081 259.356 562.411 289.513 562.411 326.407C562.411 456.267 482.001 484.848 405.461 493.161C417.501 503.309 428.681 524.035 428.681 555.712C428.681 600.948 428.251 637.297 428.251 648.277C428.251 657.135 434.271 667.713 451.901 664.33C589.53 619.954 688 493.19 688 344.037C688 157.36 533.974 6 344 6Z" fill="url(#paint0_linear)"/>
</g>
<defs>
<linearGradient id="paint0_linear" x1="344" y1="6" x2="344" y2="665.343" gradientUnits="userSpaceOnUse">
<stop stop-color="white"/>
<stop offset="1" stop-color="white" stop-opacity="0"/>
</linearGradient>
<clipPath id="clip0">
<rect width="688" height="688" fill="white" transform="translate(0 -40)"/>
</clipPath>
</defs>
</svg>
